<svg xmlns="http://www.w3.org/2000/svg" viewBox="0 0 79.04 7.9"><defs><style>.cls-1{fill:#ea541e;}</style></defs><title>ic_title_chuck</title><g id="Capa_2" data-name="Capa 2"><g id="Capa_1-2" data-name="Capa 1"><path class="cls-1" d="M6.53,2.56V4.44a4.41,4.41,0,0,0-2.19-.75,1.89,1.89,0,0,0-1.5.64,2.55,2.55,0,0,0-.56,1.73,2.29,2.29,0,0,0,.59,1.65,2.09,2.09,0,0,0,1.58.62,4.34,4.34,0,0,0,2.07-.7V9.5A7.42,7.42,0,0,1,4.27,10,3.5,3.5,0,0,1,1.63,8.81,3.88,3.88,0,0,1,.55,6,3.94,3.94,0,0,1,1.66,3.2,3.57,3.57,0,0,1,4.34,2,5.43,5.43,0,0,1,6.53,2.56Z" transform="translate(-0.55 -2.05)"/><path class="cls-1" d="M7.76,2.15H9.42v3h2.72v-3H13.8V9.85H12.14V6.79H9.42V9.85H7.76Z" transform="translate(-0.55 -2.05)"/><path class="cls-1" d="M15.39,2.15H17V6.86a1.5,1.5,0,0,0,.36,1.05,1.23,1.23,0,0,0,1,.4,1.37,1.37,0,0,0,1.05-.4,1.6,1.6,0,0,0,.38-1.13V2.15H21.4v5a3.14,3.14,0,0,1-.34,1.36,2.35,2.35,0,0,1-1,1.08,3.31,3.31,0,0,1-1.58.38,2.77,2.77,0,0,1-3-2.74Z" transform="translate(-0.55 -2.05)"/><path class="cls-1" d="M28.76,2.56V4.44a4.41,4.41,0,0,0-2.19-.75,1.89,1.89,0,0,0-1.5.64,2.55,2.55,0,0,0-.56,1.73,2.29,2.29,0,0,0,.59,1.65,2.09,2.09,0,0,0,1.58.62,4.34,4.34,0,0,0,2.07-.7V9.5A7.42,7.42,0,0,1,26.5,10a3.5,3.5,0,0,1-2.64-1.14A3.88,3.88,0,0,1,22.78,6a3.94,3.94,0,0,1,1.1-2.83A3.57,3.57,0,0,1,26.57,2,5.43,5.43,0,0,1,28.76,2.56Z" transform="translate(-0.55 -2.05)"/><path class="cls-1" d="M30,2.15H31.7V5.4h0l2.55-3.25h2L33.38,5.83l3,4h-2l-2.71-3.6h0v3.6H30Z" transform="translate(-0.55 -2.05)"/><path class="cls-1" d="M45.9,2.15h1.62V9.85H45.91l-3.52-5v5H40.73V2.15h1.64L45.9,7.1Z" transform="translate(-0.55 -2.05)"/><path class="cls-1" d="M48.82,6a3.78,3.78,0,0,1,1.13-2.82,3.68,3.68,0,0,1,2.67-1.11A3.82,3.82,0,0,1,56.57,6a3.84,3.84,0,0,1-1.11,2.81,3.76,3.76,0,0,1-2.79,1.12,3.7,3.7,0,0,1-2.77-1.11A3.88,3.88,0,0,1,48.82,6ZM52.7,3.61a1.91,1.91,0,0,0-1.56.67A2.61,2.61,0,0,0,50.55,6a2.45,2.45,0,0,0,.6,1.7,2,2,0,0,0,1.52.67,2,2,0,0,0,1.56-.67A2.53,2.53,0,0,0,54.83,6a2.48,2.48,0,0,0-.58-1.72A2,2,0,0,0,52.7,3.61Z" transform="translate(-0.55 -2.05)"/><path class="cls-1" d="M57.94,2.15h2.53a2.62,2.62,0,0,1,1.83.61A2.11,2.11,0,0,1,63,4.41a2.82,2.82,0,0,1-.31,1.23,2.15,2.15,0,0,1-1.14,1l2.15,3.21H61.77l-2-3H59.6v3H57.94Zm1.67,1.37v2H60q1.3,0,1.3-1.06a.82.82,0,0,0-.34-.69A1.53,1.53,0,0,0,60,3.52Z" transform="translate(-0.55 -2.05)"/><path class="cls-1" d="M64.93,2.15h2.53a2.62,2.62,0,0,1,1.83.61A2.11,2.11,0,0,1,70,4.41a2.82,2.82,0,0,1-.31,1.23,2.15,2.15,0,0,1-1.14,1l2.15,3.21H68.77l-2-3h-.19v3H64.93ZM66.6,3.52v2H67q1.3,0,1.3-1.06a.82.82,0,0,0-.34-.69A1.53,1.53,0,0,0,67,3.52Z" transform="translate(-0.55 -2.05)"/><path class="cls-1" d="M71.87,2.15h1.66V9.85H71.87Z" transform="translate(-0.55 -2.05)"/><path class="cls-1" d="M79.38,2.85,78.35,4a2.83,2.83,0,0,0-1.17-.48.63.63,0,0,0-.47.21.69.69,0,0,0-.2.5q0,.57,1,1a7.16,7.16,0,0,1,1.14.58,2.09,2.09,0,0,1,.65.72,2,2,0,0,1,.26,1,2.27,2.27,0,0,1-.8,1.72A2.71,2.71,0,0,1,76.9,10a3.43,3.43,0,0,1-2.36-1.12l1.09-1.27A2,2,0,0,0,77,8.31.83.83,0,0,0,77.57,8a.78.78,0,0,0,.28-.56q0-.6-1.27-1.06a4.18,4.18,0,0,1-1-.5A1.77,1.77,0,0,1,75,5.25a2.11,2.11,0,0,1-.21-.91,2.2,2.2,0,0,1,.67-1.66A2.42,2.42,0,0,1,77.24,2,3,3,0,0,1,79.38,2.85Z" transform="translate(-0.55 -2.05)"/></g></g></svg>